<svg width="111" height="30" viewBox="0 0 111 30" fill="none" xmlns="http://www.w3.org/2000/svg">
<path d="M0.68 29V0.999998H6.68V24.36H18.76V29H0.68ZM33.9934 29.48C31.2468 29.48 28.8334 28.8667 26.7534 27.64C24.6734 26.4133 23.0334 24.72 21.8334 22.56C20.6601 20.3733 20.0734 17.8533 20.0734 15C20.0734 12.1467 20.6601 9.64 21.8334 7.48C23.0334 5.29333 24.6734 3.58667 26.7534 2.36C28.8334 1.13333 31.2468 0.52 33.9934 0.52C36.7401 0.52 39.1668 1.13333 41.2734 2.36C43.3801 3.58667 45.0068 5.29333 46.1534 7.48C47.3268 9.64 47.9134 12.1467 47.9134 15C47.9134 17.8533 47.3268 20.3733 46.1534 22.56C45.0068 24.72 43.3801 26.4133 41.2734 27.64C39.1668 28.8667 36.7401 29.48 33.9934 29.48ZM33.9934 24.08C35.6201 24.08 37.0068 23.7067 38.1534 22.96C39.3268 22.2133 40.2334 21.1733 40.8734 19.84C41.5134 18.48 41.8334 16.8667 41.8334 15C41.8334 13.1333 41.5134 11.5333 40.8734 10.2C40.2334 8.84 39.3268 7.8 38.1534 7.08C37.0068 6.33333 35.6201 5.96 33.9934 5.96C32.4201 5.96 31.0468 6.33333 29.8734 7.08C28.7001 7.8 27.7934 8.84 27.1534 10.2C26.5134 11.5333 26.1934 13.1333 26.1934 15C26.1934 16.8667 26.5134 18.48 27.1534 19.84C27.7934 21.1733 28.7001 22.2133 29.8734 22.96C31.0468 23.7067 32.4201 24.08 33.9934 24.08ZM64.7588 29.48C62.0921 29.48 59.7588 28.8933 57.7588 27.72C55.7854 26.52 54.2521 24.8533 53.1588 22.72C52.0654 20.5867 51.5188 18.0933 51.5188 15.24C51.5188 12.36 52.0788 9.81333 53.1988 7.6C54.3454 5.38667 55.9854 3.65333 58.1188 2.4C60.2521 1.14667 62.7988 0.52 65.7588 0.52C69.0921 0.52 71.8521 1.32 74.0388 2.92C76.2521 4.52 77.6788 6.73333 78.3188 9.56H71.6388C71.2388 8.44 70.5321 7.57333 69.5188 6.96C68.5321 6.34667 67.2654 6.04 65.7188 6.04C63.9588 6.04 62.4788 6.42667 61.2788 7.2C60.0788 7.94667 59.1721 9.01333 58.5588 10.4C57.9454 11.76 57.6388 13.3733 57.6388 15.24C57.6388 17.16 57.9454 18.7867 58.5588 20.12C59.1721 21.4533 60.0654 22.4667 61.2388 23.16C62.4121 23.8267 63.7988 24.16 65.3988 24.16C67.6921 24.16 69.4254 23.56 70.5988 22.36C71.7988 21.16 72.5321 19.6533 72.7988 17.84H66.2788V13.36H78.7988V29H73.2788L72.7988 25.76C72.2388 26.56 71.5721 27.24 70.7988 27.8C70.0521 28.36 69.1721 28.7733 68.1588 29.04C67.1721 29.3333 66.0388 29.48 64.7588 29.48ZM96.7669 29.48C94.0202 29.48 91.6069 28.8667 89.5269 27.64C87.4469 26.4133 85.8069 24.72 84.6069 22.56C83.4335 20.3733 82.8469 17.8533 82.8469 15C82.8469 12.1467 83.4335 9.64 84.6069 7.48C85.8069 5.29333 87.4469 3.58667 89.5269 2.36C91.6069 1.13333 94.0202 0.52 96.7669 0.52C99.5135 0.52 101.94 1.13333 104.047 2.36C106.154 3.58667 107.78 5.29333 108.927 7.48C110.1 9.64 110.687 12.1467 110.687 15C110.687 17.8533 110.1 20.3733 108.927 22.56C107.78 24.72 106.154 26.4133 104.047 27.64C101.94 28.8667 99.5135 29.48 96.7669 29.48ZM96.7669 24.08C98.3935 24.08 99.7802 23.7067 100.927 22.96C102.1 22.2133 103.007 21.1733 103.647 19.84C104.287 18.48 104.607 16.8667 104.607 15C104.607 13.1333 104.287 11.5333 103.647 10.2C103.007 8.84 102.1 7.8 100.927 7.08C99.7802 6.33333 98.3935 5.96 96.7669 5.96C95.1935 5.96 93.8202 6.33333 92.6469 7.08C91.4735 7.8 90.5669 8.84 89.9269 10.2C89.2869 11.5333 88.9669 13.1333 88.9669 15C88.9669 16.8667 89.2869 18.48 89.9269 19.84C90.5669 21.1733 91.4735 22.2133 92.6469 22.96C93.8202 23.7067 95.1935 24.08 96.7669 24.08Z" fill="white"/>
</svg>
