<svg width="126" height="121" viewBox="0 0 126 121" fill="none" xmlns="http://www.w3.org/2000/svg">
<path id="Vector" d="M89.3454 37.6984V35.3868C89.3454 33.2676 88.5007 31.2351 86.997 29.7366C85.4933 28.2381 83.4538 27.3962 81.3273 27.3962H66.4364V3.42453C66.4364 2.51629 66.0743 1.64524 65.4299 1.00302C64.7855 0.360798 63.9114 0 63 0C62.0887 0 61.2146 0.360798 60.5702 1.00302C59.9257 1.64524 59.5637 2.51629 59.5637 3.42453V27.3962H44.6728C42.5462 27.3962 40.5068 28.2381 39.0031 29.7366C37.4994 31.2351 36.6546 33.2676 36.6546 35.3868V37.6698C25.6961 42.6788 16.4142 50.7226 9.9152 60.8423C3.41625 70.9619 -0.0255339 82.7306 0.000142622 94.7453C0.000142622 95.6535 0.362186 96.5246 1.00663 97.1668C1.65107 97.809 2.52512 98.1698 3.4365 98.1698H41.2364V99.3113C41.2364 105.064 43.5294 110.58 47.6108 114.648C51.6923 118.715 57.228 121 63 121C68.7721 121 74.3077 118.715 78.3892 114.648C82.4707 110.58 84.7636 105.064 84.7636 99.3113V98.1698H122.564C123.475 98.1698 124.349 97.809 124.993 97.1668C125.638 96.5246 126 95.6535 126 94.7453C126.02 82.7354 122.576 70.9729 116.077 60.8588C109.578 50.7447 100.299 42.7054 89.3454 37.6984ZM77.8909 99.3113C77.8909 103.247 76.3221 107.022 73.5295 109.805C70.7369 112.587 66.9493 114.151 63 114.151C59.0507 114.151 55.2632 112.587 52.4706 109.805C49.678 107.022 48.1091 103.247 48.1091 99.3113V98.1698H77.8909V99.3113ZM6.97595 91.3208C7.60005 80.873 11.1603 70.8108 17.2499 62.2836C23.3395 53.7563 31.7131 47.1079 41.414 43.0977C42.0374 42.8385 42.5704 42.402 42.9462 41.8427C43.3221 41.2833 43.5242 40.626 43.5273 39.9528V35.3868C43.5273 35.084 43.648 34.7937 43.8628 34.5796C44.0776 34.3656 44.369 34.2453 44.6728 34.2453H81.3273C81.6311 34.2453 81.9224 34.3656 82.1372 34.5796C82.352 34.7937 82.4727 35.084 82.4727 35.3868V39.9528C82.4724 40.6289 82.673 41.29 83.0491 41.8527C83.4251 42.4154 83.96 42.8545 84.5861 43.1148C94.2845 47.1237 102.656 53.7696 108.746 62.2935C114.835 70.8174 118.397 80.876 119.024 91.3208H6.97595Z" fill="white"/>
</svg>
